<svg xmlns="http://www.w3.org/2000/svg" viewBox="0 0 20 20"><defs><style>.cls-1{fill:#4b6eb5;}.cls-2{fill:#5b66af;opacity:0;}</style></defs><g id="Layer_2" data-name="Layer 2"><g id="Layer_1-2" data-name="Layer 1"><path class="cls-1" d="M10.07,17.5c-1.65,0-3.31,0-5,0a2.59,2.59,0,0,1-1.92-.86,2.82,2.82,0,0,1-.78-2.17,2.57,2.57,0,0,1,.74-1.67L6,10l.95-1a1.07,1.07,0,0,0,.33-.79V4.88a.25.25,0,0,0-.09-.2l-.56-.57a.91.91,0,0,1-.22-1,.94.94,0,0,1,.9-.58h5.56a.93.93,0,0,1,.69,1.6L13,4.7a.29.29,0,0,0-.07.16V8.23a1,1,0,0,0,.34.78l3.65,3.65a2.79,2.79,0,0,1,.21,3.82,2.7,2.7,0,0,1-2.15,1ZM7.31,11.23l0,0,.59.19a3.8,3.8,0,0,0,1.57.19,5.73,5.73,0,0,0,1.22-.3,3.66,3.66,0,0,1,1.67-.18l.39.05a.46.46,0,0,0-.1-.1l-.8-.81A2.78,2.78,0,0,1,11,8.22V4.38H9.13V8.23a2.12,2.12,0,0,1,0,.44,2.71,2.71,0,0,1-.69,1.49c-.32.34-.66.67-1,1A.67.67,0,0,1,7.31,11.23Z"/><rect class="cls-2" width="20" height="20"/></g></g></svg>