<svg xmlns="http://www.w3.org/2000/svg" viewBox="0 0 20 20"><defs><style>.cls-1{fill:#3ba55b;}.cls-2{fill:#b5dfcc;}.cls-3{fill:#5b66af;opacity:0;}</style></defs><g id="Layer_2" data-name="Layer 2"><g id="Layer_1-2" data-name="Layer 1"><path class="cls-1" d="M13.44,3.39S19.19,7.32,17,12.84s-6.53,4-4.91,2.37-1.91-2.7-4.18-4.8l5.52-7"/><path class="cls-2" d="M13.09,8.79a4.65,4.65,0,0,1-4.25,2L4.22,16.72a.92.92,0,0,1-.28.24,1.09,1.09,0,0,1-.36.12,1.16,1.16,0,0,1-.37,0,1.09,1.09,0,0,1-.34-.17,1,1,0,0,1-.24-.29.77.77,0,0,1-.12-.35.81.81,0,0,1,0-.38.87.87,0,0,1,.17-.33L7.3,9.65A4.6,4.6,0,0,1,8.26,5c1.53-1.94,3.83-2.66,5.17-1.61S14.61,6.86,13.09,8.79Z"/><rect class="cls-3" width="20" height="20"/></g></g></svg>