<svg xmlns="http://www.w3.org/2000/svg" viewBox="0 0 20 20"><defs><style>.cls-1,.cls-2{fill:#5b66af;}.cls-2{opacity:0;}</style></defs><g id="Layer_2" data-name="Layer 2"><g id="Layer_1-2" data-name="Layer 1"><path class="cls-1" d="M14,2.5H6A3.13,3.13,0,0,1,2.87,5.37v.75a12.2,12.2,0,0,0,4.82,9.57L10,17.5l2.31-1.81a12.1,12.1,0,0,0,4.81-9.57V5.37A3.17,3.17,0,0,1,14,2.5Zm-.48,5.65L9.72,12a1.13,1.13,0,0,1-.79.33h0a1.17,1.17,0,0,1-.79-.34L6.47,10.27a1.14,1.14,0,0,1,0-1.6,1.12,1.12,0,0,1,1.59,0l.86.86,3-3a1.13,1.13,0,1,1,1.59,1.6Z"/><rect class="cls-2" width="20" height="20"/></g></g></svg>