<svg xmlns="http://www.w3.org/2000/svg" viewBox="0 0 20 20"><defs><style>.cls-1,.cls-2{fill:#5b66af;}.cls-1{opacity:0;}</style></defs><g id="Layer_2" data-name="Layer 2"><g id="Layer_1-2" data-name="Layer 1"><rect class="cls-1" width="20" height="20"/><path class="cls-2" d="M13.45,7.88,11.58,9.13a.4.4,0,0,1-.56,0,1.86,1.86,0,0,0-.68-.38A1.85,1.85,0,0,0,9,8.94l-.62.44L4.92,11.62a1.5,1.5,0,0,1-2.18-.5A1.48,1.48,0,0,1,3.3,9l4-2.74A5.1,5.1,0,0,1,11,5.64a4.08,4.08,0,0,1,2.62,1.62A.37.37,0,0,1,13.45,7.88Z"/><path class="cls-2" d="M17.5,9.75a1.52,1.52,0,0,1-.75,1.31l-4.11,2.67a4.66,4.66,0,0,1-2.55.75A3,3,0,0,1,9,14.36a5,5,0,0,1-2.61-1.62c-.13-.13-.13-.5.12-.56l1.87-1.25a.4.4,0,0,1,.56,0,1.27,1.27,0,0,0,.68.38A1.85,1.85,0,0,0,11,11.12l.94-.56,2.8-1.87.37-.31a1.5,1.5,0,0,1,2.18.5A2.21,2.21,0,0,1,17.5,9.75Z"/></g></g></svg>