<svg xmlns="http://www.w3.org/2000/svg" viewBox="0 0 20 20"><defs><style>.cls-1,.cls-2{fill:#5b66af;}.cls-1{opacity:0;}</style></defs><g id="Layer_2" data-name="Layer 2"><g id="Layer_1-2" data-name="Layer 1"><rect class="cls-1" width="20" height="20"/><path class="cls-2" d="M5,5s.19-.27.26-.39-.19-.4-.3-.49a.34.34,0,0,0-.27-.05,4.33,4.33,0,0,0-2.07,2c-.09.24.23.5.46.63s.28-.07.39-.17l0,0,.05,0h0L7.16,10l.49-.49.9-.91L5,5Z"/><path class="cls-2" d="M13.49,8.77l.19-.18,1.71,1.69h0a.1.1,0,0,0,.06,0l1.89-1.87c.06-.06,0-.09,0-.09L15.92,6.84h0l-.2-.2.11-.1.24,0L16,6.25l.06-.06L16,5.73a8.61,8.61,0,0,0-1.16-1.14l-.45-.08,0,.06L14,4.52l0,.28,0,0-.1.1-.55-.53s-3.19-1.74-3.36-1.82a.71.71,0,0,0-.23-.07.25.25,0,0,0-.16.06c-.14.09-.06.29-.06.29l2,3.66.4.39L11.85,7l0,0-.32,0,0,.31-.09.09h0s0,0,0,0a.07.07,0,0,0-.06,0,.08.08,0,0,0,0,.11h0l0,0h0a.05.05,0,0,0,0,0,.09.09,0,0,0-.06,0,.08.08,0,0,0,0,.11h0l-.84.84,0,0s0,0-.05,0a.07.07,0,0,0-.06,0,.08.08,0,0,0,0,.11l0,0,0,0h0a.05.05,0,0,0,0,0l-.06,0a.08.08,0,0,0,0,.11h0L10,8.91v.14l0,.06h0L10,9.18l-4.5,4.5-.06,0-.18,0-.11.11h0s0,0,0,0a.07.07,0,0,0-.06,0,.08.08,0,0,0,0,.11H5l0,0h0a.05.05,0,0,0-.05,0l-.06,0a.08.08,0,0,0,0,.11h0L4,14.87v0l-.06,0,0,0a.08.08,0,0,0,0,.11l0,0-.05,0v0l-.06,0,0,0a.08.08,0,0,0,0,.11v0l-.06.06-.32-.06,0,.36-.1.1.08.48a2.13,2.13,0,0,0,.41.7,2.13,2.13,0,0,0,.69.41l.46.08.12-.11.32.05-.06-.31.1-.1,0,.05.06,0,.05,0a.08.08,0,0,0,0-.11l0,0,0,0,0,0,.06,0,0,0a.08.08,0,0,0,0-.11l0,0,.83-.83,0,0s0,0,.05,0a.07.07,0,0,0,.06,0,.08.08,0,0,0,0-.11l0,0,0,0,0,0a.05.05,0,0,0,0,0l.06,0a.08.08,0,0,0,0-.11l0,0,.09-.09,0-.2,0-.05h0L7,15l4.47-4.47h0l.09.09h.14l.13-.13,0,0s0,0,0,0a.07.07,0,0,0,.06,0,.08.08,0,0,0,0-.11l0,0,0,0h0a.05.05,0,0,0,.05,0l.06,0a.08.08,0,0,0,0-.11h0l.84-.84,0,0s0,0,0,0a.07.07,0,0,0,.06,0,.08.08,0,0,0,0-.11l0,0,0,0h0a.05.05,0,0,0,0,0l.06,0a.08.08,0,0,0,0-.11h0l.09-.1.31.05Z"/><path class="cls-2" d="M14.11,13.83l-2-1.51L11.78,12l-1.37,1.37.35.33,1.29,1.93,1.74,1.91,2-1.87Z"/></g></g></svg>